<mxfile host="app.diagrams.net" modified="2024-01-29T13:19:00.619Z" agent="Mozilla/5.0 (Windows NT 10.0; Win64; x64) AppleWebKit/537.36 (KHTML, like Gecko) Chrome/120.0.0.0 Safari/537.36" etag="yhSfGYlVf-sQu7_Pfq1i" version="23.0.2" type="github">
  <diagram name="Page-1" id="p3HgUkYo7iXWnQnuB2KT">
    <mxGraphModel dx="1600" dy="1958" grid="1" gridSize="10" guides="1" tooltips="1" connect="1" arrows="1" fold="1" page="1" pageScale="1" pageWidth="827" pageHeight="1169" math="0" shadow="0">
      <root>
        <mxCell id="0" />
        <mxCell id="1" parent="0" />
        <mxCell id="WXGLmSBJHyjonPNilt5l-1" value="NAVBAR" style="rounded=0;whiteSpace=wrap;html=1;" vertex="1" parent="1">
          <mxGeometry y="-1169" width="820" height="49" as="geometry" />
        </mxCell>
        <mxCell id="WXGLmSBJHyjonPNilt5l-2" value="CONTENUE&lt;br&gt;" style="rounded=0;whiteSpace=wrap;html=1;" vertex="1" parent="1">
          <mxGeometry y="-1120" width="820" height="1040" as="geometry" />
        </mxCell>
        <mxCell id="WXGLmSBJHyjonPNilt5l-3" value="FOOTER" style="rounded=0;whiteSpace=wrap;html=1;" vertex="1" parent="1">
          <mxGeometry y="-80" width="820" height="80" as="geometry" />
        </mxCell>
      </root>
    </mxGraphModel>
  </diagram>
</mxfile>
